<svg xmlns="http://www.w3.org/2000/svg" style="display:none">
  <symbol id="pencil" viewBox="0 0 24 24" fill="none" stroke="currentColor"
          stroke-width="2" stroke-linecap="round" stroke-linejoin="round">
    <path d="M12 20h9"/>
    <path d="M16.5 3.5a2.121 2.121 0 0 1 3 3L7 19l-4 1 1-4 12.5-12.5Z"/>
  </symbol>

  <symbol id="code" viewBox="0 0 24 24" fill="none" stroke="currentColor"       
          stroke-width="2" stroke-linecap="round" stroke-linejoin="round">      
    <polyline points="16 18 22 12 16 6"/>
    <polyline points="8 6 2 12 8 18"/>
  </symbol>

  <!-- What I Do Card Icons -->
  <symbol id="web-development" viewBox="0 0 24 24" fill="none" stroke="currentColor" 
          stroke-width="2" stroke-linecap="round" stroke-linejoin="round">
    <rect x="2" y="3" width="20" height="14" rx="2" ry="2"/>
    <line x1="8" y1="21" x2="16" y2="21"/>
    <line x1="12" y1="17" x2="12" y2="21"/>
  </symbol>

  <symbol id="mobile-development" viewBox="0 0 24 24" fill="none" stroke="currentColor" 
          stroke-width="2" stroke-linecap="round" stroke-linejoin="round">
    <rect x="5" y="2" width="14" height="20" rx="2" ry="2"/>
    <line x1="12" y1="18" x2="12.01" y2="18"/>
  </symbol>

  <symbol id="database" viewBox="0 0 24 24" fill="none" stroke="currentColor" 
          stroke-width="2" stroke-linecap="round" stroke-linejoin="round">
    <ellipse cx="12" cy="5" rx="9" ry="3"/>
    <path d="M3 5v14c0 1.4 4 3 9 3s9-1.6 9-3V5"/>
    <path d="M3 12c0 1.4 4 3 9 3s9-1.6 9-3"/>
  </symbol>

  <symbol id="design" viewBox="0 0 24 24" fill="none" stroke="currentColor" 
          stroke-width="2" stroke-linecap="round" stroke-linejoin="round">
    <path d="M12 2l3.09 6.26L22 9.27l-5 4.87 1.18 6.88L12 17.77l-6.18 3.25L7 14.14 2 9.27l6.91-1.01L12 2z"/>
  </symbol>

  <symbol id="support" viewBox="0 0 24 24" fill="none" stroke="currentColor" 
          stroke-width="2" stroke-linecap="round" stroke-linejoin="round">
    <path d="M9 12l2 2 4-4"/>
    <path d="M21 12c0 4.97-4.03 9-9 9s-9-4.03-9-9 4.03-9 9-9 9 4.03 9 9z"/>
  </symbol>

  <symbol id="analytics" viewBox="0 0 24 24" fill="none" stroke="currentColor" 
          stroke-width="2" stroke-linecap="round" stroke-linejoin="round">
    <path d="M3 3v18h18"/>
    <path d="M18.7 8l-5.1 5.2-2.8-2.7L7 14.3"/>
  </symbol>

  <symbol id="security" viewBox="0 0 24 24" fill="none" stroke="currentColor" 
          stroke-width="2" stroke-linecap="round" stroke-linejoin="round">
    <path d="M12 22s8-4 8-10V5l-8-3-8 3v7c0 6 8 10 8 10z"/>
    <path d="M9 12l2 2 4-4"/>
  </symbol>

  <symbol id="cloud" viewBox="0 0 24 24" fill="none" stroke="currentColor" 
          stroke-width="2" stroke-linecap="round" stroke-linejoin="round">
    <path d="M18 10h-1.26A8 8 0 1 0 9 20h9a5 5 0 0 0 0-10z"/>
  </symbol>

  <symbol id="api" viewBox="0 0 24 24" fill="none" stroke="currentColor" 
          stroke-width="2" stroke-linecap="round" stroke-linejoin="round">
    <path d="M4 7V4a2 2 0 0 1 2-2h8.5L20 7.5V20a2 2 0 0 1-2 2h-5.5"/>
    <polyline points="14,2 14,8 20,8"/>
    <path d="M10 13h4"/>
    <path d="M10 17h4"/>
    <path d="M10 9h4"/>
  </symbol>

  <symbol id="maintenance" viewBox="0 0 24 24" fill="none" stroke="currentColor" 
          stroke-width="2" stroke-linecap="round" stroke-linejoin="round">
    <path d="M14.7 6.3a1 1 0 0 0 0 1.4l1.6 1.6a1 1 0 0 0 1.4 0l3.77-3.77a6 6 0 0 1-7.94 7.94l-6.91 6.91a2.12 2.12 0 0 1-3-3l6.91-6.91a6 6 0 0 1 7.94-7.94l-3.76 3.76z"/>
  </symbol>

  <!-- aggiungi altri symbol qui -->
</svg>