<svg xmlns="http://www.w3.org/2000/svg" style="display:none">
  <symbol id="pencil" viewBox="0 0 24 24" fill="none" stroke="currentColor"
          stroke-width="2" stroke-linecap="round" stroke-linejoin="round">
    <path d="M12 20h9"/>
    <path d="M16.5 3.5a2.121 2.121 0 0 1 3 3L7 19l-4 1 1-4 12.5-12.5Z"/>
  </symbol>

  <symbol id="code" viewBox="0 0 24 24" fill="none" stroke="currentColor"       
          stroke-width="2" stroke-linecap="round" stroke-linejoin="round">      
    <polyline points="16 18 22 12 16 6"/>
    <polyline points="8 6 2 12 8 18"/>
  </symbol>

  <!-- What I Do Card Icons -->
  <symbol id="web-development" viewBox="0 0 24 24" fill="none" stroke="currentColor" 
          stroke-width="2" stroke-linecap="round" stroke-linejoin="round">
    <rect x="2" y="3" width="20" height="14" rx="2" ry="2"/>
    <line x1="8" y1="21" x2="16" y2="21"/>
    <line x1="12" y1="17" x2="12" y2="21"/>
  </symbol>

  <symbol id="mobile-development" viewBox="0 0 24 24" fill="none" stroke="currentColor" 
          stroke-width="2" stroke-linecap="round" stroke-linejoin="round">
    <rect x="5" y="2" width="14" height="20" rx="2" ry="2"/>
    <line x1="12" y1="18" x2="12.01" y2="18"/>
  </symbol>

  <symbol id="database" viewBox="0 0 24 24" fill="none" stroke="currentColor" 
          stroke-width="2" stroke-linecap="round" stroke-linejoin="round">
    <ellipse cx="12" cy="5" rx="9" ry="3"/>
    <path d="M3 5v14c0 1.4 4 3 9 3s9-1.6 9-3V5"/>
    <path d="M3 12c0 1.4 4 3 9 3s9-1.6 9-3"/>
  </symbol>

  <symbol id="design" viewBox="0 0 24 24" fill="none" stroke="currentColor" 
          stroke-width="2" stroke-linecap="round" stroke-linejoin="round">
    <path d="M12 2l3.09 6.26L22 9.27l-5 4.87 1.18 6.88L12 17.77l-6.18 3.25L7 14.14 2 9.27l6.91-1.01L12 2z"/>
  </symbol>

  <symbol id="support" viewBox="0 0 24 24" fill="none" stroke="currentColor" 
          stroke-width="2" stroke-linecap="round" stroke-linejoin="round">
    <path d="M9 12l2 2 4-4"/>
    <path d="M21 12c0 4.97-4.03 9-9 9s-9-4.03-9-9 4.03-9 9-9 9 4.03 9 9z"/>
  </symbol>

  <symbol id="analytics" viewBox="0 0 24 24" fill="none" stroke="currentColor" 
          stroke-width="2" stroke-linecap="round" stroke-linejoin="round">
    <path d="M3 3v18h18"/>
    <path d="M18.7 8l-5.1 5.2-2.8-2.7L7 14.3"/>
  </symbol>

  <symbol id="security" viewBox="0 0 24 24" fill="none" stroke="currentColor" 
          stroke-width="2" stroke-linecap="round" stroke-linejoin="round">
    <path d="M12 22s8-4 8-10V5l-8-3-8 3v7c0 6 8 10 8 10z"/>
    <path d="M9 12l2 2 4-4"/>
  </symbol>

  <symbol id="cloud" viewBox="0 0 24 24" fill="none" stroke="currentColor" 
          stroke-width="2" stroke-linecap="round" stroke-linejoin="round">
    <path d="M18 10h-1.26A8 8 0 1 0 9 20h9a5 5 0 0 0 0-10z"/>
  </symbol>

  <symbol id="api" viewBox="0 0 24 24" fill="none" stroke="currentColor" 
          stroke-width="2" stroke-linecap="round" stroke-linejoin="round">
    <path d="M4 7V4a2 2 0 0 1 2-2h8.5L20 7.5V20a2 2 0 0 1-2 2h-5.5"/>
    <polyline points="14,2 14,8 20,8"/>
    <path d="M10 13h4"/>
    <path d="M10 17h4"/>
    <path d="M10 9h4"/>
  </symbol>

  <symbol id="maintenance" viewBox="0 0 24 24" fill="none" stroke="currentColor" 
          stroke-width="2" stroke-linecap="round" stroke-linejoin="round">
    <path d="M14.7 6.3a1 1 0 0 0 0 1.4l1.6 1.6a1 1 0 0 0 1.4 0l3.77-3.77a6 6 0 0 1-7.94 7.94l-6.91 6.91a2.12 2.12 0 0 1-3-3l6.91-6.91a6 6 0 0 1 7.94-7.94l-3.76 3.76z"/>
  </symbol>

  <!-- Nuove icone aggiunte -->
  <symbol id="terminal" viewBox="0 0 24 24" fill="none" stroke="currentColor" 
          stroke-width="2" stroke-linecap="round" stroke-linejoin="round">
    <polyline points="4 17 10 11 4 5"/>
    <line x1="12" y1="19" x2="20" y2="19"/>
  </symbol>

  <symbol id="server" viewBox="0 0 24 24" fill="none" stroke="currentColor" 
          stroke-width="2" stroke-linecap="round" stroke-linejoin="round">
    <rect x="2" y="2" width="20" height="8" rx="2" ry="2"/>
    <rect x="2" y="14" width="20" height="8" rx="2" ry="2"/>
    <line x1="6" y1="6" x2="6.01" y2="6"/>
    <line x1="6" y1="18" x2="6.01" y2="18"/>
  </symbol>

  <symbol id="git" viewBox="0 0 24 24" fill="none" stroke="currentColor" 
          stroke-width="2" stroke-linecap="round" stroke-linejoin="round">
    <circle cx="12" cy="12" r="10"/>
    <path d="M8 14s1.5 2 4 2 4-2 4-2"/>
    <line x1="9" y1="9" x2="9.01" y2="9"/>
    <line x1="15" y1="9" x2="15.01" y2="9"/>
  </symbol>

  <symbol id="rocket" viewBox="0 0 24 24" fill="none" stroke="currentColor" 
          stroke-width="2" stroke-linecap="round" stroke-linejoin="round">
    <path d="M4.5 16.5c-1.5 1.26-2 5-2 5s3.74-.5 5-2c.71-.84.7-2.13-.09-2.91a2.18 2.18 0 0 0-2.91-.09z"/>
    <path d="m12 15-3-3a22 22 0 0 1 2-3.95A12.88 12.88 0 0 1 22 2c0 2.72-.78 7.5-6 11a22.35 22.35 0 0 1-4 2z"/>
    <path d="M9 12H4s.55-3.03 2-4c1.62-1.08 5 0 5 0"/>
    <path d="M12 15v5s3.03-.55 4-2c1.08-1.62 0-5 0-5"/>
  </symbol>

  <symbol id="cpu" viewBox="0 0 24 24" fill="none" stroke="currentColor" 
          stroke-width="2" stroke-linecap="round" stroke-linejoin="round">
    <rect x="4" y="4" width="16" height="16" rx="2" ry="2"/>
    <rect x="9" y="9" width="6" height="6"/>
    <line x1="9" y1="1" x2="9" y2="4"/>
    <line x1="15" y1="1" x2="15" y2="4"/>
    <line x1="9" y1="20" x2="9" y2="23"/>
    <line x1="15" y1="20" x2="15" y2="23"/>
    <line x1="20" y1="9" x2="23" y2="9"/>
    <line x1="20" y1="14" x2="23" y2="14"/>
    <line x1="1" y1="9" x2="4" y2="9"/>
    <line x1="1" y1="14" x2="4" y2="14"/>
  </symbol>

  <symbol id="package" viewBox="0 0 24 24" fill="none" stroke="currentColor" 
          stroke-width="2" stroke-linecap="round" stroke-linejoin="round">
    <line x1="16.5" y1="9.4" x2="7.5" y2="4.21"/>
    <path d="M21 16V8a2 2 0 0 0-1-1.73l-7-4a2 2 0 0 0-2 0l-7 4A2 2 0 0 0 3 8v8a2 2 0 0 0 1 1.73l7 4a2 2 0 0 0 2 0l7-4A2 2 0 0 0 21 16z"/>
    <polyline points="3.27 6.96 12 12.01 20.73 6.96"/>
    <line x1="12" y1="22.08" x2="12" y2="12"/>
  </symbol>

  <symbol id="layers" viewBox="0 0 24 24" fill="none" stroke="currentColor" 
          stroke-width="2" stroke-linecap="round" stroke-linejoin="round">
    <polygon points="12 2 2 7 12 12 22 7 12 2"/>
    <polyline points="2 17 12 22 22 17"/>
    <polyline points="2 12 12 17 22 12"/>
  </symbol>

  <symbol id="box" viewBox="0 0 24 24" fill="none" stroke="currentColor" 
          stroke-width="2" stroke-linecap="round" stroke-linejoin="round">
    <path d="M21 16V8a2 2 0 0 0-1-1.73l-7-4a2 2 0 0 0-2 0l-7 4A2 2 0 0 0 3 8v8a2 2 0 0 0 1 1.73l7 4a2 2 0 0 0 2 0l7-4A2 2 0 0 0 21 16z"/>
    <polyline points="3.27 6.96 12 12.01 20.73 6.96"/>
    <line x1="12" y1="22.08" x2="12" y2="12"/>
  </symbol>

  <symbol id="globe" viewBox="0 0 24 24" fill="none" stroke="currentColor" 
          stroke-width="2" stroke-linecap="round" stroke-linejoin="round">
    <circle cx="12" cy="12" r="10"/>
    <line x1="2" y1="12" x2="22" y2="12"/>
    <path d="M12 2a15.3 15.3 0 0 1 4 10 15.3 15.3 0 0 1-4 10 15.3 15.3 0 0 1-4-10 15.3 15.3 0 0 1 4-10z"/>
  </symbol>

  <symbol id="settings" viewBox="0 0 24 24" fill="none" stroke="currentColor" 
          stroke-width="2" stroke-linecap="round" stroke-linejoin="round">
    <circle cx="12" cy="12" r="3"/>
    <path d="M12 1v6m0 6v6m9-9h-6m-6 0H3m15.364 6.364l-4.243-4.243m-6.364 0L3.636 17.364m12.728 0l-4.243-4.243m-6.364 0L3.636 6.636"/>
  </symbol>

  <symbol id="zap" viewBox="0 0 24 24" fill="none" stroke="currentColor" 
          stroke-width="2" stroke-linecap="round" stroke-linejoin="round">
    <polygon points="13 2 3 14 12 14 11 22 21 10 12 10 13 2"/>
  </symbol>

  <symbol id="activity" viewBox="0 0 24 24" fill="none" stroke="currentColor" 
          stroke-width="2" stroke-linecap="round" stroke-linejoin="round">
    <polyline points="22 12 18 12 15 21 9 3 6 12 2 12"/>
  </symbol>

  <symbol id="smartphone" viewBox="0 0 24 24" fill="none" stroke="currentColor" 
          stroke-width="2" stroke-linecap="round" stroke-linejoin="round">
    <rect x="5" y="2" width="14" height="20" rx="2" ry="2"/>
    <line x1="12" y1="18" x2="12.01" y2="18"/>
  </symbol>

  <symbol id="tablet" viewBox="0 0 24 24" fill="none" stroke="currentColor" 
          stroke-width="2" stroke-linecap="round" stroke-linejoin="round">
    <rect x="4" y="2" width="16" height="20" rx="2" ry="2"/>
    <line x1="12" y1="18" x2="12.01" y2="18"/>
  </symbol>

  <symbol id="git-branch" viewBox="0 0 24 24" fill="none" stroke="currentColor" 
          stroke-width="2" stroke-linecap="round" stroke-linejoin="round">
    <line x1="6" y1="3" x2="6" y2="15"/>
    <circle cx="18" cy="6" r="3"/>
    <circle cx="6" cy="18" r="3"/>
    <path d="M18 9a9 9 0 0 1-9 9"/>
  </symbol>

  <symbol id="git-commit" viewBox="0 0 24 24" fill="none" stroke="currentColor" 
          stroke-width="2" stroke-linecap="round" stroke-linejoin="round">
    <circle cx="12" cy="12" r="4"/>
    <line x1="1.05" y1="12" x2="7" y2="12"/>
    <line x1="17.01" y1="12" x2="22.96" y2="12"/>
  </symbol>

  <symbol id="git-pull-request" viewBox="0 0 24 24" fill="none" stroke="currentColor" 
          stroke-width="2" stroke-linecap="round" stroke-linejoin="round">
    <circle cx="18" cy="18" r="3"/>
    <circle cx="6" cy="6" r="3"/>
    <path d="M13 6h3a2 2 0 0 1 2 2v7"/>
    <line x1="6" y1="9" x2="6" y2="21"/>
  </symbol>

  <symbol id="folder" viewBox="0 0 24 24" fill="none" stroke="currentColor" 
          stroke-width="2" stroke-linecap="round" stroke-linejoin="round">
    <path d="M22 19a2 2 0 0 1-2 2H4a2 2 0 0 1-2-2V5a2 2 0 0 1 2-2h5l2 3h9a2 2 0 0 1 2 2z"/>
  </symbol>

  <symbol id="file-text" viewBox="0 0 24 24" fill="none" stroke="currentColor" 
          stroke-width="2" stroke-linecap="round" stroke-linejoin="round">
    <path d="M14 2H6a2 2 0 0 0-2 2v16a2 2 0 0 0 2 2h12a2 2 0 0 0 2-2V8z"/>
    <polyline points="14 2 14 8 20 8"/>
    <line x1="16" y1="13" x2="8" y2="13"/>
    <line x1="16" y1="17" x2="8" y2="17"/>
    <line x1="10" y1="9" x2="8" y2="9"/>
  </symbol>

  <symbol id="layout" viewBox="0 0 24 24" fill="none" stroke="currentColor" 
          stroke-width="2" stroke-linecap="round" stroke-linejoin="round">
    <rect x="3" y="3" width="18" height="18" rx="2" ry="2"/>
    <line x1="3" y1="9" x2="21" y2="9"/>
    <line x1="9" y1="21" x2="9" y2="9"/>
  </symbol>

  <symbol id="grid" viewBox="0 0 24 24" fill="none" stroke="currentColor" 
          stroke-width="2" stroke-linecap="round" stroke-linejoin="round">
    <rect x="3" y="3" width="7" height="7"/>
    <rect x="14" y="3" width="7" height="7"/>
    <rect x="14" y="14" width="7" height="7"/>
    <rect x="3" y="14" width="7" height="7"/>
  </symbol>

  <symbol id="command" viewBox="0 0 24 24" fill="none" stroke="currentColor" 
          stroke-width="2" stroke-linecap="round" stroke-linejoin="round">
    <path d="M18 3a3 3 0 0 0-3 3v12a3 3 0 0 0 3 3 3 3 0 0 0 3-3 3 3 0 0 0-3-3H6a3 3 0 0 0-3 3 3 3 0 0 0 3 3 3 3 0 0 0 3-3V6a3 3 0 0 0-3-3 3 3 0 0 0-3 3 3 3 0 0 0 3 3h12a3 3 0 0 0 3-3 3 3 0 0 0-3-3z"/>
  </symbol>

  <symbol id="compass" viewBox="0 0 24 24" fill="none" stroke="currentColor" 
          stroke-width="2" stroke-linecap="round" stroke-linejoin="round">
    <circle cx="12" cy="12" r="10"/>
    <polygon points="16.24 7.76 14.12 14.12 7.76 16.24 9.88 9.88 16.24 7.76"/>
  </symbol>

  <symbol id="briefcase" viewBox="0 0 24 24" fill="none" stroke="currentColor" 
          stroke-width="2" stroke-linecap="round" stroke-linejoin="round">
    <rect x="2" y="7" width="20" height="14" rx="2" ry="2"/>
    <path d="M16 21V5a2 2 0 0 0-2-2h-4a2 2 0 0 0-2 2v16"/>
  </symbol>

  <symbol id="book" viewBox="0 0 24 24" fill="none" stroke="currentColor" 
          stroke-width="2" stroke-linecap="round" stroke-linejoin="round">
    <path d="M4 19.5A2.5 2.5 0 0 1 6.5 17H20"/>
    <path d="M6.5 2H20v20H6.5A2.5 2.5 0 0 1 4 19.5v-15A2.5 2.5 0 0 1 6.5 2z"/>
  </symbol>

  <symbol id="award" viewBox="0 0 24 24" fill="none" stroke="currentColor" 
          stroke-width="2" stroke-linecap="round" stroke-linejoin="round">
    <circle cx="12" cy="8" r="7"/>
    <polyline points="8.21 13.89 7 23 12 20 17 23 15.79 13.88"/>
  </symbol>

  <symbol id="target" viewBox="0 0 24 24" fill="none" stroke="currentColor" 
          stroke-width="2" stroke-linecap="round" stroke-linejoin="round">
    <circle cx="12" cy="12" r="10"/>
    <circle cx="12" cy="12" r="6"/>
    <circle cx="12" cy="12" r="2"/>
  </symbol>

  <symbol id="trending-up" viewBox="0 0 24 24" fill="none" stroke="currentColor" 
          stroke-width="2" stroke-linecap="round" stroke-linejoin="round">
    <polyline points="23 6 13.5 15.5 8.5 10.5 1 18"/>
    <polyline points="17 6 23 6 23 12"/>
  </symbol>

  <symbol id="bar-chart" viewBox="0 0 24 24" fill="none" stroke="currentColor" 
          stroke-width="2" stroke-linecap="round" stroke-linejoin="round">
    <line x1="12" y1="20" x2="12" y2="10"/>
    <line x1="18" y1="20" x2="18" y2="4"/>
    <line x1="6" y1="20" x2="6" y2="16"/>
  </symbol>

  <symbol id="pie-chart" viewBox="0 0 24 24" fill="none" stroke="currentColor" 
          stroke-width="2" stroke-linecap="round" stroke-linejoin="round">
    <path d="M21.21 15.89A10 10 0 1 1 8 2.83"/>
    <path d="M22 12A10 10 0 0 0 12 2v10z"/>
  </symbol>

  <symbol id="feather" viewBox="0 0 24 24" fill="none" stroke="currentColor" 
          stroke-width="2" stroke-linecap="round" stroke-linejoin="round">
    <path d="M20.24 12.24a6 6 0 0 0-8.49-8.49L5 10.5V19h8.5z"/>
    <line x1="16" y1="8" x2="2" y2="22"/>
    <line x1="17.5" y1="15" x2="9" y2="15"/>
  </symbol>

  <symbol id="heart" viewBox="0 0 24 24" fill="none" stroke="currentColor" 
          stroke-width="2" stroke-linecap="round" stroke-linejoin="round">
    <path d="M20.84 4.61a5.5 5.5 0 0 0-7.78 0L12 5.67l-1.06-1.06a5.5 5.5 0 0 0-7.78 7.78l1.06 1.06L12 21.23l7.78-7.78 1.06-1.06a5.5 5.5 0 0 0 0-7.78z"/>
  </symbol>

  <symbol id="users" viewBox="0 0 24 24" fill="none" stroke="currentColor" 
          stroke-width="2" stroke-linecap="round" stroke-linejoin="round">
    <path d="M17 21v-2a4 4 0 0 0-4-4H5a4 4 0 0 0-4 4v2"/>
    <circle cx="9" cy="7" r="4"/>
    <path d="M23 21v-2a4 4 0 0 0-3-3.87"/>
    <path d="M16 3.13a4 4 0 0 1 0 7.75"/>
  </symbol>

  <symbol id="message-circle" viewBox="0 0 24 24" fill="none" stroke="currentColor" 
          stroke-width="2" stroke-linecap="round" stroke-linejoin="round">
    <path d="M21 11.5a8.38 8.38 0 0 1-.9 3.8 8.5 8.5 0 0 1-7.6 4.7 8.38 8.38 0 0 1-3.8-.9L3 21l1.9-5.7a8.38 8.38 0 0 1-.9-3.8 8.5 8.5 0 0 1 4.7-7.6 8.38 8.38 0 0 1 3.8-.9h.5a8.48 8.48 0 0 1 8 8v.5z"/>
  </symbol>

  <symbol id="mail" viewBox="0 0 24 24" fill="none" stroke="currentColor" 
          stroke-width="2" stroke-linecap="round" stroke-linejoin="round">
    <path d="M4 4h16c1.1 0 2 .9 2 2v12c0 1.1-.9 2-2 2H4c-1.1 0-2-.9-2-2V6c0-1.1.9-2 2-2z"/>
    <polyline points="22,6 12,13 2,6"/>
  </symbol>

  <symbol id="bell" viewBox="0 0 24 24" fill="none" stroke="currentColor" 
          stroke-width="2" stroke-linecap="round" stroke-linejoin="round">
    <path d="M18 8A6 6 0 0 0 6 8c0 7-3 9-3 9h18s-3-2-3-9"/>
    <path d="M13.73 21a2 2 0 0 1-3.46 0"/>
  </symbol>

  <symbol id="camera" viewBox="0 0 24 24" fill="none" stroke="currentColor" 
          stroke-width="2" stroke-linecap="round" stroke-linejoin="round">
    <path d="M23 19a2 2 0 0 1-2 2H3a2 2 0 0 1-2-2V8a2 2 0 0 1 2-2h4l2-3h6l2 3h4a2 2 0 0 1 2 2z"/>
    <circle cx="12" cy="13" r="4"/>
  </symbol>

  <symbol id="video" viewBox="0 0 24 24" fill="none" stroke="currentColor" 
          stroke-width="2" stroke-linecap="round" stroke-linejoin="round">
    <polygon points="23 7 16 12 23 17 23 7"/>
    <rect x="1" y="5" width="15" height="14" rx="2" ry="2"/>
  </symbol>

  <symbol id="music" viewBox="0 0 24 24" fill="none" stroke="currentColor" 
          stroke-width="2" stroke-linecap="round" stroke-linejoin="round">
    <path d="M9 18V5l12-2v13"/>
    <circle cx="6" cy="18" r="3"/>
    <circle cx="18" cy="16" r="3"/>
  </symbol>

  <symbol id="image" viewBox="0 0 24 24" fill="none" stroke="currentColor" 
          stroke-width="2" stroke-linecap="round" stroke-linejoin="round">
    <rect x="3" y="3" width="18" height="18" rx="2" ry="2"/>
    <circle cx="8.5" cy="8.5" r="1.5"/>
    <polyline points="21 15 16 10 5 21"/>
  </symbol>

  <symbol id="map" viewBox="0 0 24 24" fill="none" stroke="currentColor" 
          stroke-width="2" stroke-linecap="round" stroke-linejoin="round">
    <polygon points="1 6 1 22 8 18 16 22 23 18 23 2 16 6 8 2 1 6"/>
    <line x1="8" y1="2" x2="8" y2="18"/>
    <line x1="16" y1="6" x2="16" y2="22"/>
  </symbol>

  <symbol id="filter" viewBox="0 0 24 24" fill="none" stroke="currentColor" 
          stroke-width="2" stroke-linecap="round" stroke-linejoin="round">
    <polygon points="22 3 2 3 10 12.46 10 19 14 21 14 12.46 22 3"/>
  </symbol>

  <symbol id="search" viewBox="0 0 24 24" fill="none" stroke="currentColor" 
          stroke-width="2" stroke-linecap="round" stroke-linejoin="round">
    <circle cx="11" cy="11" r="8"/>
    <line x1="21" y1="21" x2="16.65" y2="16.65"/>
  </symbol>

  <symbol id="share" viewBox="0 0 24 24" fill="none" stroke="currentColor" 
          stroke-width="2" stroke-linecap="round" stroke-linejoin="round">
    <circle cx="18" cy="5" r="3"/>
    <circle cx="6" cy="12" r="3"/>
    <circle cx="18" cy="19" r="3"/>
    <line x1="8.59" y1="13.51" x2="15.42" y2="17.49"/>
    <line x1="15.41" y1="6.51" x2="8.59" y2="10.49"/>
  </symbol>

  <symbol id="link" viewBox="0 0 24 24" fill="none" stroke="currentColor" 
          stroke-width="2" stroke-linecap="round" stroke-linejoin="round">
    <path d="M10 13a5 5 0 0 0 7.54.54l3-3a5 5 0 0 0-7.07-7.07l-1.72 1.71"/>
    <path d="M14 11a5 5 0 0 0-7.54-.54l-3 3a5 5 0 0 0 7.07 7.07l1.71-1.71"/>
  </symbol>

  <symbol id="download" viewBox="0 0 24 24" fill="none" stroke="currentColor" 
          stroke-width="2" stroke-linecap="round" stroke-linejoin="round">
    <path d="M21 15v4a2 2 0 0 1-2 2H5a2 2 0 0 1-2-2v-4"/>
    <polyline points="7 10 12 15 17 10"/>
    <line x1="12" y1="15" x2="12" y2="3"/>
  </symbol>

  <symbol id="upload" viewBox="0 0 24 24" fill="none" stroke="currentColor" 
          stroke-width="2" stroke-linecap="round" stroke-linejoin="round">
    <path d="M21 15v4a2 2 0 0 1-2 2H5a2 2 0 0 1-2-2v-4"/>
    <polyline points="17 8 12 3 7 8"/>
    <line x1="12" y1="3" x2="12" y2="15"/>
  </symbol>

  <symbol id="refresh" viewBox="0 0 24 24" fill="none" stroke="currentColor" 
          stroke-width="2" stroke-linecap="round" stroke-linejoin="round">
    <polyline points="23 4 23 10 17 10"/>
    <polyline points="1 20 1 14 7 14"/>
    <path d="M3.51 9a9 9 0 0 1 14.85-3.36L23 10M1 14l4.64 4.36A9 9 0 0 0 20.49 15"/>
  </symbol>

  <symbol id="wifi" viewBox="0 0 24 24" fill="none" stroke="currentColor" 
          stroke-width="2" stroke-linecap="round" stroke-linejoin="round">
    <path d="M5 12.55a11 11 0 0 1 14.08 0"/>
    <path d="M1.42 9a16 16 0 0 1 21.16 0"/>
    <path d="M8.53 16.11a6 6 0 0 1 6.95 0"/>
    <line x1="12" y1="20" x2="12.01" y2="20"/>
  </symbol>

  <symbol id="bluetooth" viewBox="0 0 24 24" fill="none" stroke="currentColor" 
          stroke-width="2" stroke-linecap="round" stroke-linejoin="round">
    <polyline points="6.5 6.5 17.5 17.5 12 23 12 1 17.5 6.5 6.5 17.5"/>
  </symbol>

  <!-- Icone AI & Data Science -->
  <symbol id="brain" viewBox="0 0 24 24" fill="none" stroke="currentColor" 
          stroke-width="2" stroke-linecap="round" stroke-linejoin="round">
    <path d="M9.5 2A2.5 2.5 0 0 1 12 4.5v15a2.5 2.5 0 0 1-4.96.44 2.5 2.5 0 0 1-2.96-3.08 3 3 0 0 1-.34-5.58 2.5 2.5 0 0 1 1.32-4.24 2.5 2.5 0 0 1 1.98-3A2.5 2.5 0 0 1 9.5 2Z"/>
    <path d="M14.5 2A2.5 2.5 0 0 0 12 4.5v15a2.5 2.5 0 0 0 4.96.44 2.5 2.5 0 0 0 2.96-3.08 3 3 0 0 0 .34-5.58 2.5 2.5 0 0 0-1.32-4.24 2.5 2.5 0 0 0-1.98-3A2.5 2.5 0 0 0 14.5 2Z"/>
  </symbol>

  <symbol id="chart-network" viewBox="0 0 24 24" fill="none" stroke="currentColor" 
          stroke-width="2" stroke-linecap="round" stroke-linejoin="round">
    <path d="M3 3v18h18"/>
    <path d="m19 9-5 5-4-4-3 3"/>
    <circle cx="6" cy="13" r="1"/>
    <circle cx="10" cy="9" r="1"/>
    <circle cx="14" cy="14" r="1"/>
    <circle cx="19" cy="9" r="1"/>
  </symbol>

  <!-- Icone E-commerce & Business -->
  <symbol id="shopping-cart" viewBox="0 0 24 24" fill="none" stroke="currentColor" 
          stroke-width="2" stroke-linecap="round" stroke-linejoin="round">
    <circle cx="9" cy="21" r="1"/>
    <circle cx="20" cy="21" r="1"/>
    <path d="M1 1h4l2.68 13.39a2 2 0 0 0 2 1.61h9.72a2 2 0 0 0 2-1.61L23 6H6"/>
  </symbol>

  <symbol id="shopping-bag" viewBox="0 0 24 24" fill="none" stroke="currentColor" 
          stroke-width="2" stroke-linecap="round" stroke-linejoin="round">
    <path d="M6 2L3 6v14a2 2 0 0 0 2 2h14a2 2 0 0 0 2-2V6l-3-4z"/>
    <line x1="3" y1="6" x2="21" y2="6"/>
    <path d="M16 10a4 4 0 0 1-8 0"/>
  </symbol>

  <symbol id="credit-card" viewBox="0 0 24 24" fill="none" stroke="currentColor" 
          stroke-width="2" stroke-linecap="round" stroke-linejoin="round">
    <rect x="1" y="4" width="22" height="16" rx="2" ry="2"/>
    <line x1="1" y1="10" x2="23" y2="10"/>
  </symbol>

  <symbol id="dollar-sign" viewBox="0 0 24 24" fill="none" stroke="currentColor" 
          stroke-width="2" stroke-linecap="round" stroke-linejoin="round">
    <line x1="12" y1="1" x2="12" y2="23"/>
    <path d="M17 5H9.5a3.5 3.5 0 0 0 0 7h5a3.5 3.5 0 0 1 0 7H6"/>
  </symbol>

  <!-- Icone Marketing & Media -->
  <symbol id="megaphone" viewBox="0 0 24 24" fill="none" stroke="currentColor" 
          stroke-width="2" stroke-linecap="round" stroke-linejoin="round">
    <path d="m3 11 18-5v12L3 14v-3z"/>
    <path d="M11.6 16.8a3 3 0 1 1-5.8-1.6"/>
  </symbol>

  <symbol id="trending-down" viewBox="0 0 24 24" fill="none" stroke="currentColor" 
          stroke-width="2" stroke-linecap="round" stroke-linejoin="round">
    <polyline points="23 18 13.5 8.5 8.5 13.5 1 6"/>
    <polyline points="17 18 23 18 23 12"/>
  </symbol>

  <symbol id="tag" viewBox="0 0 24 24" fill="none" stroke="currentColor" 
          stroke-width="2" stroke-linecap="round" stroke-linejoin="round">
    <path d="M20.59 13.41l-7.17 7.17a2 2 0 0 1-2.83 0L2 12V2h10l8.59 8.59a2 2 0 0 1 0 2.82z"/>
    <line x1="7" y1="7" x2="7.01" y2="7"/>
  </symbol>

  <!-- Icone Creative & Design -->
  <symbol id="palette" viewBox="0 0 24 24" fill="none" stroke="currentColor" 
          stroke-width="2" stroke-linecap="round" stroke-linejoin="round">
    <circle cx="13.5" cy="6.5" r=".5"/>
    <circle cx="17.5" cy="10.5" r=".5"/>
    <circle cx="8.5" cy="7.5" r=".5"/>
    <circle cx="6.5" cy="12.5" r=".5"/>
    <path d="M12 2C6.5 2 2 6.5 2 12s4.5 10 10 10c.926 0 1.648-.746 1.648-1.688 0-.437-.18-.835-.437-1.125-.29-.289-.438-.652-.438-1.125a1.64 1.64 0 0 1 1.668-1.668h1.996c3.051 0 5.555-2.503 5.555-5.554C21.965 6.012 17.461 2 12 2z"/>
  </symbol>

  <symbol id="brush" viewBox="0 0 24 24" fill="none" stroke="currentColor" 
          stroke-width="2" stroke-linecap="round" stroke-linejoin="round">
    <path d="m9.06 11.9 8.07-8.06a2.85 2.85 0 1 1 4.03 4.03l-8.06 8.08"/>
    <path d="M7.07 14.94c-1.66 0-3 1.35-3 3.02 0 1.33-2.5 1.52-2 2.02 1.08 1.1 2.49 2.02 4 2.02 2.2 0 4-1.8 4-4.04a3.01 3.01 0 0 0-3-3.02z"/>
  </symbol>

  <symbol id="pen-tool" viewBox="0 0 24 24" fill="none" stroke="currentColor" 
          stroke-width="2" stroke-linecap="round" stroke-linejoin="round">
    <path d="m12 19 7-7 3 3-7 7-3-3z"/>
    <path d="m18 13-1.5-7.5L2 2l3.5 14.5L13 18l5-5z"/>
    <path d="m2 2 7.586 7.586"/>
    <circle cx="11" cy="11" r="2"/>
  </symbol>

  <!-- Icone Development Specifiche -->
  <symbol id="lightbulb" viewBox="0 0 24 24" fill="none" stroke="currentColor" 
          stroke-width="2" stroke-linecap="round" stroke-linejoin="round">
    <path d="M15 14c.2-1 .7-1.7 1.5-2.5 1-.9 1.5-2.2 1.5-3.5A6 6 0 0 0 6 8c0 1 .2 2.2 1.5 3.5.7.7 1.3 1.5 1.5 2.5"/>
    <path d="M9 18h6"/>
    <path d="M10 22h4"/>
  </symbol>

  <symbol id="puzzle" viewBox="0 0 24 24" fill="none" stroke="currentColor" 
          stroke-width="2" stroke-linecap="round" stroke-linejoin="round">
    <path d="M19.439 7.85c-.049.322.059.648.289.878l1.568 1.568c.47.47.706 1.087.706 1.704s-.235 1.233-.706 1.704l-1.611 1.611a.98.98 0 0 1-.837.276c-.47-.07-.802-.48-.968-.925a2.501 2.501 0 1 0-3.214 3.214c.446.166.855.497.925.968a.979.979 0 0 1-.276.837l-1.61 1.61a2.404 2.404 0 0 1-1.705.707 2.402 2.402 0 0 1-1.704-.706l-1.568-1.568a1.026 1.026 0 0 0-.877-.29c-.493.074-.84.504-1.02.968a2.5 2.5 0 1 1-3.237-3.237c.464-.18.894-.527.967-1.02a1.026 1.026 0 0 0-.289-.877l-1.568-1.568A2.402 2.402 0 0 1 1.998 12c0-.617.236-1.234.706-1.704L4.23 8.77c.24-.24.581-.353.917-.303.515.077.877.528 1.073 1.01a2.5 2.5 0 1 0 3.259-3.259c-.482-.196-.933-.558-1.01-1.073-.05-.336.062-.676.303-.917l1.525-1.525A2.402 2.402 0 0 1 12 1.998c.617 0 1.234.236 1.704.706l1.568 1.568c.23.23.556.338.877.29.493-.074.84-.504 1.02-.968a2.5 2.5 0 1 1 3.237 3.237c-.464.18-.894.527-.967 1.02Z"/>
  </symbol>

  <symbol id="blocks" viewBox="0 0 24 24" fill="none" stroke="currentColor" 
          stroke-width="2" stroke-linecap="round" stroke-linejoin="round">
    <rect x="14" y="14" width="8" height="8" rx="2"/>
    <rect x="2" y="2" width="8" height="8" rx="2"/>
    <path d="M7 14v1a2 2 0 0 0 2 2h1"/>
    <path d="M14 7h1a2 2 0 0 1 2 2v1"/>
  </symbol>

  <!-- Icone Education & Learning -->
  <symbol id="graduation-cap" viewBox="0 0 24 24" fill="none" stroke="currentColor" 
          stroke-width="2" stroke-linecap="round" stroke-linejoin="round">
    <path d="M22 10v6M2 10l10-5 10 5-10 5z"/>
    <path d="M6 12v5c3 3 9 3 12 0v-5"/>
  </symbol>

  <symbol id="book-open" viewBox="0 0 24 24" fill="none" stroke="currentColor" 
          stroke-width="2" stroke-linecap="round" stroke-linejoin="round">
    <path d="M2 3h6a4 4 0 0 1 4 4v14a3 3 0 0 0-3-3H2z"/>
    <path d="M22 3h-6a4 4 0 0 0-4 4v14a3 3 0 0 1 3-3h7z"/>
  </symbol>

  <symbol id="clipboard" viewBox="0 0 24 24" fill="none" stroke="currentColor" 
          stroke-width="2" stroke-linecap="round" stroke-linejoin="round">
    <path d="M16 4h2a2 2 0 0 1 2 2v14a2 2 0 0 1-2 2H6a2 2 0 0 1-2-2V6a2 2 0 0 1 2-2h2"/>
    <rect x="8" y="2" width="8" height="4" rx="1" ry="1"/>
  </symbol>

  <!-- Icone Creative Production -->
  <symbol id="film" viewBox="0 0 24 24" fill="none" stroke="currentColor" 
          stroke-width="2" stroke-linecap="round" stroke-linejoin="round">
    <rect x="2" y="2" width="20" height="20" rx="2.18" ry="2.18"/>
    <line x1="7" y1="2" x2="7" y2="22"/>
    <line x1="17" y1="2" x2="17" y2="22"/>
    <line x1="2" y1="12" x2="22" y2="12"/>
    <line x1="2" y1="7" x2="7" y2="7"/>
    <line x1="2" y1="17" x2="7" y2="17"/>
    <line x1="17" y1="17" x2="22" y2="17"/>
    <line x1="17" y1="7" x2="22" y2="7"/>
  </symbol>

  <symbol id="mic" viewBox="0 0 24 24" fill="none" stroke="currentColor" 
          stroke-width="2" stroke-linecap="round" stroke-linejoin="round">
    <path d="M12 1a3 3 0 0 0-3 3v8a3 3 0 0 0 6 0V4a3 3 0 0 0-3-3z"/>
    <path d="M19 10v2a7 7 0 0 1-14 0v-2"/>
    <line x1="12" y1="19" x2="12" y2="23"/>
    <line x1="8" y1="23" x2="16" y2="23"/>
  </symbol>

  <symbol id="headphones" viewBox="0 0 24 24" fill="none" stroke="currentColor" 
          stroke-width="2" stroke-linecap="round" stroke-linejoin="round">
    <path d="M3 18v-6a9 9 0 0 1 18 0v6"/>
    <path d="M21 19a2 2 0 0 1-2 2h-1a2 2 0 0 1-2-2v-3a2 2 0 0 1 2-2h3zM3 19a2 2 0 0 0 2 2h1a2 2 0 0 0 2-2v-3a2 2 0 0 0-2-2H3z"/>
  </symbol>

  <!-- Icone Gaming & 3D -->
  <symbol id="gamepad" viewBox="0 0 24 24" fill="none" stroke="currentColor" 
          stroke-width="2" stroke-linecap="round" stroke-linejoin="round">
    <line x1="6" y1="12" x2="10" y2="12"/>
    <line x1="8" y1="10" x2="8" y2="14"/>
    <line x1="15" y1="13" x2="15.01" y2="13"/>
    <line x1="18" y1="11" x2="18.01" y2="11"/>
    <rect x="2" y="6" width="20" height="12" rx="2"/>
  </symbol>

  <symbol id="cube" viewBox="0 0 24 24" fill="none" stroke="currentColor" 
          stroke-width="2" stroke-linecap="round" stroke-linejoin="round">
    <path d="M21 16V8a2 2 0 0 0-1-1.73l-7-4a2 2 0 0 0-2 0l-7 4A2 2 0 0 0 3 8v8a2 2 0 0 0 1 1.73l7 4a2 2 0 0 0 2 0l7-4A2 2 0 0 0 21 16z"/>
    <polyline points="7.5 4.21 12 6.81 16.5 4.21"/>
    <polyline points="7.5 19.79 7.5 14.6 3 12"/>
    <polyline points="21 12 16.5 14.6 16.5 19.79"/>
    <polyline points="3.27 6.96 12 12.01 20.73 6.96"/>
    <line x1="12" y1="22.08" x2="12" y2="12"/>
  </symbol>

  <!-- Icone DevOps & Infrastructure -->
  <symbol id="docker" viewBox="0 0 24 24" fill="none" stroke="currentColor" 
          stroke-width="2" stroke-linecap="round" stroke-linejoin="round">
    <rect x="2" y="6" width="4" height="4"/>
    <rect x="7" y="6" width="4" height="4"/>
    <rect x="12" y="6" width="4" height="4"/>
    <rect x="7" y="11" width="4" height="4"/>
    <rect x="12" y="11" width="4" height="4"/>
    <path d="M17 11h3a3 3 0 0 1 0 6h-3"/>
  </symbol>

  <symbol id="network" viewBox="0 0 24 24" fill="none" stroke="currentColor" 
          stroke-width="2" stroke-linecap="round" stroke-linejoin="round">
    <rect x="16" y="16" width="6" height="6" rx="1"/>
    <rect x="2" y="16" width="6" height="6" rx="1"/>
    <rect x="9" y="2" width="6" height="6" rx="1"/>
    <path d="M5 16v-3a1 1 0 0 1 1-1h12a1 1 0 0 1 1 1v3"/>
    <path d="M12 12V8"/>
  </symbol>

  <!-- Icone Testing & Quality -->
  <symbol id="check-circle" viewBox="0 0 24 24" fill="none" stroke="currentColor" 
          stroke-width="2" stroke-linecap="round" stroke-linejoin="round">
    <path d="M22 11.08V12a10 10 0 1 1-5.93-9.14"/>
    <polyline points="22 4 12 14.01 9 11.01"/>
  </symbol>

  <symbol id="clipboard-check" viewBox="0 0 24 24" fill="none" stroke="currentColor" 
          stroke-width="2" stroke-linecap="round" stroke-linejoin="round">
    <path d="M16 4h2a2 2 0 0 1 2 2v14a2 2 0 0 1-2 2H6a2 2 0 0 1-2-2V6a2 2 0 0 1 2-2h2"/>
    <rect x="8" y="2" width="8" height="4" rx="1" ry="1"/>
    <path d="m9 14 2 2 4-4"/>
  </symbol>

  <!-- Icone Collaboration -->
  <symbol id="slack" viewBox="0 0 24 24" fill="none" stroke="currentColor" 
          stroke-width="2" stroke-linecap="round" stroke-linejoin="round">
    <rect x="13" y="2" width="3" height="8" rx="1.5"/>
    <path d="M19 8.5V10h1.5A1.5 1.5 0 1 0 19 8.5"/>
    <rect x="8" y="14" width="3" height="8" rx="1.5"/>
    <path d="M5 15.5V14H3.5A1.5 1.5 0 1 0 5 15.5"/>
    <rect x="14" y="13" width="8" height="3" rx="1.5"/>
    <path d="M15.5 19H14v1.5a1.5 1.5 0 1 0 1.5-1.5"/>
    <rect x="2" y="8" width="8" height="3" rx="1.5"/>
    <path d="M8.5 5H10V3.5A1.5 1.5 0 1 0 8.5 5"/>
  </symbol>

  <symbol id="trello" viewBox="0 0 24 24" fill="none" stroke="currentColor" 
          stroke-width="2" stroke-linecap="round" stroke-linejoin="round">
    <rect x="3" y="3" width="18" height="18" rx="2" ry="2"/>
    <rect x="7" y="7" width="3" height="9"/>
    <rect x="14" y="7" width="3" height="5"/>
  </symbol>

  <!-- Icone Writing & Content -->
  <symbol id="edit" viewBox="0 0 24 24" fill="none" stroke="currentColor" 
          stroke-width="2" stroke-linecap="round" stroke-linejoin="round">
    <path d="M11 4H4a2 2 0 0 0-2 2v14a2 2 0 0 0 2 2h14a2 2 0 0 0 2-2v-7"/>
    <path d="M18.5 2.5a2.121 2.121 0 0 1 3 3L12 15l-4 1 1-4 9.5-9.5z"/>
  </symbol>

  <symbol id="type" viewBox="0 0 24 24" fill="none" stroke="currentColor" 
          stroke-width="2" stroke-linecap="round" stroke-linejoin="round">
    <polyline points="4 7 4 4 20 4 20 7"/>
    <line x1="9" y1="20" x2="15" y2="20"/>
    <line x1="12" y1="4" x2="12" y2="20"/>
  </symbol>

  <!-- Icone Security & Privacy -->
  <symbol id="lock" viewBox="0 0 24 24" fill="none" stroke="currentColor" 
          stroke-width="2" stroke-linecap="round" stroke-linejoin="round">
    <rect x="3" y="11" width="18" height="11" rx="2" ry="2"/>
    <path d="M7 11V7a5 5 0 0 1 10 0v4"/>
  </symbol>

  <symbol id="unlock" viewBox="0 0 24 24" fill="none" stroke="currentColor" 
          stroke-width="2" stroke-linecap="round" stroke-linejoin="round">
    <rect x="3" y="11" width="18" height="11" rx="2" ry="2"/>
    <path d="M7 11V7a5 5 0 0 1 9.9-1"/>
  </symbol>

  <symbol id="key" viewBox="0 0 24 24" fill="none" stroke="currentColor" 
          stroke-width="2" stroke-linecap="round" stroke-linejoin="round">
    <path d="M21 2l-2 2m-7.61 7.61a5.5 5.5 0 1 1-7.778 7.778 5.5 5.5 0 0 1 7.777-7.777zm0 0L15.5 7.5m0 0l3 3L22 7l-3-3m-3.5 3.5L19 4"/>
  </symbol>

  <!-- Icone Time & Calendar -->
  <symbol id="clock" viewBox="0 0 24 24" fill="none" stroke="currentColor" 
          stroke-width="2" stroke-linecap="round" stroke-linejoin="round">
    <circle cx="12" cy="12" r="10"/>
    <polyline points="12 6 12 12 16 14"/>
  </symbol>

  <symbol id="calendar" viewBox="0 0 24 24" fill="none" stroke="currentColor" 
          stroke-width="2" stroke-linecap="round" stroke-linejoin="round">
    <rect x="3" y="4" width="18" height="18" rx="2" ry="2"/>
    <line x1="16" y1="2" x2="16" y2="6"/>
    <line x1="8" y1="2" x2="8" y2="6"/>
    <line x1="3" y1="10" x2="21" y2="10"/>
  </symbol>

  <!-- Icone SEO & Analytics -->
  <symbol id="trending-flat" viewBox="0 0 24 24" fill="none" stroke="currentColor" 
          stroke-width="2" stroke-linecap="round" stroke-linejoin="round">
    <polyline points="23 12 13.5 12 8.5 12 1 12"/>
    <polyline points="17 6 23 12 17 18"/>
  </symbol>

  <symbol id="eye" viewBox="0 0 24 24" fill="none" stroke="currentColor" 
          stroke-width="2" stroke-linecap="round" stroke-linejoin="round">
    <path d="M1 12s4-8 11-8 11 8 11 8-4 8-11 8-11-8-11-8z"/>
    <circle cx="12" cy="12" r="3"/>
  </symbol>

  <!-- Icone Blockchain & Finance -->
  <symbol id="coins" viewBox="0 0 24 24" fill="none" stroke="currentColor" 
          stroke-width="2" stroke-linecap="round" stroke-linejoin="round">
    <circle cx="8" cy="8" r="6"/>
    <path d="M18.09 10.37A6 6 0 1 1 10.34 18"/>
    <path d="M7 6h1v4"/>
    <path d="m16.71 13.88.7.71-2.82 2.82"/>
  </symbol>

  <symbol id="trending" viewBox="0 0 24 24" fill="none" stroke="currentColor" 
          stroke-width="2" stroke-linecap="round" stroke-linejoin="round">
    <polyline points="22 7 13.5 15.5 8.5 10.5 2 17"/>
    <polyline points="16 7 22 7 22 13"/>
  </symbol>

  <!-- Icone Tools & Utilities -->
  <symbol id="sliders" viewBox="0 0 24 24" fill="none" stroke="currentColor" 
          stroke-width="2" stroke-linecap="round" stroke-linejoin="round">
    <line x1="4" y1="21" x2="4" y2="14"/>
    <line x1="4" y1="10" x2="4" y2="3"/>
    <line x1="12" y1="21" x2="12" y2="12"/>
    <line x1="12" y1="8" x2="12" y2="3"/>
    <line x1="20" y1="21" x2="20" y2="16"/>
    <line x1="20" y1="12" x2="20" y2="3"/>
    <line x1="1" y1="14" x2="7" y2="14"/>
    <line x1="9" y1="8" x2="15" y2="8"/>
    <line x1="17" y1="16" x2="23" y2="16"/>
  </symbol>

  <!-- Icone Location & Travel -->
  <symbol id="map-pin" viewBox="0 0 24 24" fill="none" stroke="currentColor" 
          stroke-width="2" stroke-linecap="round" stroke-linejoin="round">
    <path d="M21 10c0 7-9 13-9 13s-9-6-9-13a9 9 0 0 1 18 0z"/>
    <circle cx="12" cy="10" r="3"/>
  </symbol>

  <symbol id="navigation" viewBox="0 0 24 24" fill="none" stroke="currentColor" 
          stroke-width="2" stroke-linecap="round" stroke-linejoin="round">
    <polygon points="3 11 22 2 13 21 11 13 3 11"/>
  </symbol>

  <!-- aggiungi altri symbol qui -->
</svg>